<?xml version="1.0" standalone="no"?>
<!DOCTYPE svg PUBLIC "-//W3C//DTD SVG 20010904//EN"
 "http://www.w3.org/TR/2001/REC-SVG-20010904/DTD/svg10.dtd">
<svg version="1.0" xmlns="http://www.w3.org/2000/svg"
 width="160.000000pt" height="160.000000pt" viewBox="0 0 160.000000 160.000000"
 preserveAspectRatio="xMidYMid meet">
<metadata>
Created by potrace 1.14, written by Peter Selinger 2001-2017
</metadata>
<g transform="translate(0.000000,160.000000) scale(0.100000,-0.100000)"
fill="#000000" stroke="none">
<path d="M688 1594 c-3 -2 -18 -6 -34 -8 -117 -14 -153 -46 -189 -171 -83
-283 0 -540 202 -631 59 -27 58 -23 78 -164 14 -90 7 -275 -10 -316 -10 -22
-19 -34 -22 -27 -9 25 -130 -26 -174 -74 -36 -39 -40 -55 -22 -92 41 -83 243
-134 389 -97 84 22 156 66 177 107 21 43 14 69 -29 113 -37 37 -74 52 -149 61
-33 3 -62 9 -64 11 -3 2 -5 68 -5 147 1 138 17 269 36 294 6 7 35 24 65 37 63
30 148 113 180 177 80 162 66 371 -40 566 -16 30 -41 44 -112 59 -35 7 -271
15 -277 8z m17 -21 c-59 -8 -150 -35 -157 -46 -6 -9 -8 -9 -8 0 0 25 85 51
160 50 32 0 33 0 5 -4z m218 0 c-7 -2 -19 -2 -25 0 -7 3 -2 5 12 5 14 0 19 -2
13 -5z m-202 -23 c11 6 19 7 19 2 0 -5 13 -8 30 -7 16 1 28 -1 25 -5 -3 -4
-20 -6 -38 -5 -22 2 -41 -3 -57 -17 l-25 -20 27 16 c34 20 44 21 29 2 -10 -12
-9 -14 6 -11 10 2 19 4 21 5 1 2 5 3 10 5 4 1 15 5 24 9 22 10 39 0 31 -19 -4
-11 3 -15 23 -16 29 -1 29 -1 4 -8 -14 -4 -27 -4 -30 -1 -5 6 -48 10 -142 13
-20 1 -35 5 -32 8 2 4 0 10 -6 14 -5 3 -10 1 -10 -6 0 -7 -3 -9 -6 -6 -4 4 -2
13 4 20 7 8 10 16 7 18 -2 3 5 5 15 6 11 1 22 -2 25 -8 9 -13 25 -11 21 4 -1
6 -1 9 1 5 3 -5 13 -3 24 2z m302 -34 c5 -7 12 -5 22 8 13 17 15 18 15 3 0
-18 -42 -33 -59 -22 -6 3 -11 3 -11 -2 0 -10 -66 -11 -76 0 -4 4 0 7 9 7 10 0
17 5 17 11 0 5 -5 7 -12 3 -7 -5 -8 -3 -4 5 10 15 87 5 99 -13z m88 -120 c10
-33 16 -62 14 -64 -10 -10 -36 23 -32 40 3 10 -1 24 -8 32 -8 7 -11 16 -8 20
4 3 -1 6 -11 6 -16 0 -16 2 -2 15 8 9 13 23 10 33 -4 13 -3 13 7 -2 6 -11 20
-46 30 -80z m-498 61 c18 -8 37 -12 44 -10 6 2 14 -1 18 -6 3 -6 25 -9 48 -7
31 3 34 2 12 -3 l-30 -7 40 -7 c60 -10 78 -9 72 7 -10 25 37 12 50 -14 l12
-25 -102 -5 c-109 -5 -138 -3 -116 10 6 5 9 15 6 25 -4 9 -11 13 -17 10 -5 -3
-10 -1 -10 6 0 9 -3 10 -11 2 -6 -6 -23 -8 -44 -3 -23 5 -36 4 -39 -4 -2 -6
-5 -2 -5 10 -2 37 18 43 72 21z m-61 -59 c-9 -9 -7 -14 6 -24 15 -12 14 -12
-7 -7 -31 8 -19 -14 14 -27 22 -8 22 -12 14 -52 -6 -23 -11 -43 -12 -44 -1 -1
-17 4 -35 11 -29 13 -32 18 -26 42 4 15 11 33 15 39 5 6 6 14 3 17 -12 12 6
57 23 57 13 0 14 -3 5 -12z m402 3 c3 -5 18 -8 33 -7 16 1 36 -6 46 -16 9 -10
12 -18 6 -18 -5 0 -7 -5 -3 -12 4 -7 3 -8 -5 -4 -6 4 -9 12 -6 17 4 5 -5 9
-19 9 -14 0 -26 4 -26 8 0 4 -18 7 -40 5 -33 -2 -38 0 -27 12 14 16 33 19 41
6z m-473 -44 c-6 -8 -8 -16 -5 -19 3 -3 1 -9 -4 -12 -6 -3 -9 0 -8 6 2 16 15
38 23 38 3 0 0 -6 -6 -13z m618 -56 c-1 -13 -2 -13 -6 2 -2 9 -9 14 -15 11 -6
-4 -14 0 -19 7 -16 25 -10 30 16 13 14 -9 24 -24 24 -33z m-442 -22 c-1 -33
-3 -45 -8 -33 -7 18 -8 18 -9 -1 -1 -11 -4 -15 -6 -8 -5 11 13 93 20 93 2 0 3
-23 3 -51z m38 14 c-4 -21 -11 -45 -17 -53 -8 -12 -9 -12 -4 2 3 10 1 20 -4
23 -6 4 -10 12 -10 18 0 7 4 6 11 -3 8 -11 9 -8 4 13 -4 19 -2 26 5 22 5 -3
10 -1 10 4 0 6 3 11 6 11 3 0 3 -17 -1 -37z m30 10 c-8 -15 -12 -30 -9 -35 3
-4 0 -8 -6 -8 -6 0 -8 10 -4 28 8 34 13 42 24 42 5 0 3 -12 -5 -27z m321 -2
c-4 -6 -15 -11 -24 -10 -11 0 -12 3 -4 6 6 2 12 12 12 21 0 12 3 13 11 5 6 -6
8 -16 5 -22z m-508 -62 c18 -6 30 -15 27 -20 -9 -13 -9 -144 -1 -157 4 -7 2
-12 -3 -12 -6 0 -11 7 -11 15 0 9 -8 19 -17 22 -10 4 -21 11 -25 17 -8 11 -11
146 -4 146 1 0 17 -5 34 -11z m169 -11 c-3 -8 -6 -5 -6 6 -1 11 2 17 5 13 3
-3 4 -12 1 -19z m377 11 c-3 -6 -20 -18 -38 -26 -30 -14 -9 -12 27 2 14 6 17
2 17 -29 0 -22 -5 -36 -12 -36 -10 0 -9 -3 1 -9 7 -5 10 -14 7 -20 -4 -6 -11
-9 -16 -6 -10 6 -60 -33 -59 -48 0 -9 2 -9 5 0 3 7 12 9 21 6 10 -4 14 -2 10
4 -4 6 0 16 7 22 8 7 17 8 19 3 8 -12 -10 -86 -23 -90 -5 -2 -7 -9 -3 -15 3
-7 3 -9 -1 -5 -5 4 -19 2 -33 -3 -24 -9 -25 -8 -19 18 4 16 7 44 9 63 1 27 9
39 32 53 17 10 21 15 10 12 -11 -4 -24 -7 -29 -8 -12 -2 -14 72 -4 95 5 10 15
15 23 12 8 -4 15 -1 15 5 0 6 9 11 21 11 12 0 17 -4 13 -11z m-384 -74 c0 -19
-4 -35 -8 -35 -4 0 -6 16 -4 35 2 19 6 35 8 35 2 0 4 -16 4 -35z m60 8 c0 -15
-2 -16 -10 -3 -7 11 -10 7 -10 -17 0 -25 -4 -33 -17 -33 -11 0 -14 3 -8 8 14
9 17 55 4 47 -5 -4 -9 -1 -9 4 0 6 11 11 25 11 17 0 25 -5 25 -17z m166 -11
c-10 -2 -22 0 -28 6 -6 6 0 7 19 4 21 -5 23 -7 9 -10z m-465 -14 c0 -13 2 -33
3 -45 1 -12 -1 -20 -5 -18 -10 7 -16 85 -7 85 5 0 8 -10 9 -22z m504 -18 c-14
-22 -14 -60 -1 -96 8 -23 10 -47 5 -59 -4 -11 -8 -15 -8 -10 -1 6 -5 4 -9 -2
-5 -8 -12 2 -19 27 -6 23 -7 43 -1 46 4 3 8 2 7 -3 -1 -4 3 -19 9 -33 9 -21
11 -22 11 -5 1 42 -10 63 -31 57 -16 -4 -18 -10 -12 -31 8 -25 8 -65 2 -106
-2 -13 2 -19 12 -17 12 3 13 1 2 -10 -11 -11 -14 -10 -22 2 -6 8 -8 21 -5 28
13 36 16 62 7 62 -9 0 -18 -20 -27 -59 -2 -8 -8 -17 -13 -20 -5 -3 -8 -14 -7
-23 2 -11 -2 -15 -12 -11 -11 4 -12 8 -3 13 9 6 7 11 -6 20 -15 9 -15 10 -2 6
9 -2 22 1 28 9 9 11 6 13 -17 11 -15 -2 -28 -5 -28 -6 0 -1 -8 -3 -17 -5 -10
-2 -18 3 -18 11 0 8 -4 14 -9 14 -9 0 -31 45 -34 71 -2 8 -6 20 -11 27 -5 8 1
26 16 47 12 19 25 30 27 24 2 -6 -3 -15 -10 -20 -12 -7 -11 -9 1 -10 8 0 23
-2 33 -4 9 -2 17 1 17 6 0 5 18 7 40 5 22 -2 42 -1 44 3 3 4 -5 8 -17 9 -62 5
-97 15 -97 28 0 8 5 14 11 14 5 0 7 -4 4 -10 -4 -6 6 -10 22 -9 25 0 26 1 8 9
-13 6 -4 7 29 4 33 -4 46 -3 42 5 -4 7 -1 9 8 5 9 -3 13 -11 10 -18 -3 -6 2
-2 10 8 9 11 16 25 16 30 0 6 5 3 11 -7 5 -9 7 -22 4 -27z m-188 8 c-3 -8 -6
-5 -6 6 -1 11 2 17 5 13 3 -3 4 -12 1 -19z m361 -13 c-1 -13 -5 -22 -8 -19 -8
9 -7 53 2 48 4 -3 7 -16 6 -29z m-398 -27 c0 -11 -22 -10 -39 1 -10 7 -7 9 12
8 15 -1 27 -5 27 -9z m-207 -33 c-3 -9 -8 -14 -10 -11 -3 3 -2 9 2 15 9 16 15
13 8 -4z m90 -2 c-4 -11 -3 -14 5 -9 8 5 8 -1 1 -24 -8 -23 -8 -34 2 -46 10
-12 10 -17 -1 -27 -10 -9 -11 -9 -6 1 4 7 3 18 -2 25 -23 29 -24 97 -1 97 4 0
5 -7 2 -17z m-30 -56 c-9 -16 -26 12 -18 30 7 17 8 17 15 -2 4 -11 5 -24 3
-28z m-77 -32 c24 -52 112 -127 178 -152 82 -31 162 -27 248 15 83 40 96 41
38 2 -48 -32 -86 -45 -162 -55 -47 -7 -112 11 -188 50 -57 29 -140 130 -140
170 0 14 11 2 26 -30z m580 -2 c-20 -37 -65 -91 -66 -78 0 6 11 22 24 36 13
14 29 35 35 47 6 12 14 22 17 22 2 0 -2 -12 -10 -27z m-56 2 c0 -2 -10 -10
-22 -16 -21 -11 -22 -11 -9 4 13 16 31 23 31 12z m-366 -77 c-3 -5 -10 -6 -15
-2 -5 3 -7 9 -4 14 3 4 -2 11 -11 14 -8 3 -12 11 -8 17 5 8 13 4 25 -12 9 -13
15 -27 13 -31z m279 25 c-3 -7 -6 -13 -8 -13 -2 0 -5 6 -8 13 -3 8 1 14 8 14
7 0 11 -6 8 -14z m-227 -58 c3 -19 2 -19 -10 -3 -7 10 -15 15 -18 12 -4 -3 -9
-1 -12 4 -3 5 4 9 16 8 13 -1 22 -9 24 -21z m171 10 c0 -8 -4 -12 -9 -9 -5 3
-6 10 -3 15 9 13 12 11 12 -6z m-92 -125 c-3 -5 -12 -10 -18 -10 -7 0 -6 4 3
10 19 12 23 12 15 0z m3 -267 c2 -91 10 -193 18 -228 5 -19 4 -19 -9 -3 -8 10
-16 16 -18 13 -3 -2 -5 65 -6 150 -1 85 2 155 6 155 4 0 8 -39 9 -87z m-31
-65 c-3 -8 -6 -5 -6 6 -1 11 2 17 5 13 3 -3 4 -12 1 -19z m-5 -45 c-3 -16 -7
-22 -10 -15 -4 13 4 42 11 42 2 0 2 -12 -1 -27z m-9 -78 c-3 -9 -8 -14 -10
-11 -3 3 -2 9 2 15 9 16 15 13 8 -4z m138 -27 c11 -20 10 -21 -3 -11 -8 7 -17
11 -20 8 -2 -3 -5 2 -5 10 0 22 15 18 28 -7z m83 -19 c-3 -5 2 -6 11 -3 10 4
26 -3 41 -16 24 -24 32 -50 14 -50 -5 0 -9 3 -8 8 2 13 -14 42 -25 42 -5 0 -3
-8 6 -18 15 -16 15 -20 1 -40 -8 -12 -13 -26 -10 -30 3 -5 -1 -9 -9 -9 -8 0
-11 5 -8 11 4 6 1 6 -8 -1 -8 -6 -27 -10 -42 -9 -15 2 -30 -1 -33 -5 -3 -5
-34 -8 -69 -7 -35 1 -67 -1 -71 -5 -15 -15 -26 -6 -13 10 13 15 12 15 -6 6
-25 -13 -68 -7 -122 17 -61 27 -53 16 17 -22 33 -18 62 -40 65 -49 4 -11 16
-16 40 -14 19 1 35 -2 35 -6 0 -17 -66 -6 -83 15 -12 14 -17 16 -14 5 3 -9 -1
-16 -8 -16 -8 0 -11 7 -7 16 5 14 3 14 -11 2 -12 -9 -17 -10 -17 -2 0 12 -42
32 -73 34 -27 2 -50 32 -42 56 6 19 23 26 48 22 4 -1 14 5 22 12 10 11 11 17
3 25 -9 9 -4 9 19 3 21 -6 35 -5 43 2 8 9 10 8 5 -5 -4 -9 -12 -19 -18 -21 -7
-2 0 -3 15 -1 28 3 57 -19 38 -31 -5 -3 -10 -11 -10 -17 0 -6 10 -2 23 10 13
12 29 22 36 22 7 0 9 5 5 13 -5 9 -4 9 6 0 9 -9 17 -9 31 0 14 9 22 8 36 -4
30 -26 80 -42 98 -31 14 7 11 10 -16 16 l-34 7 28 15 c21 11 25 19 18 32 -15
30 -3 42 30 30 16 -5 26 -14 23 -19z m-272 7 c7 4 8 2 4 -5 -9 -13 -26 -5 -25
12 0 9 2 8 6 -1 2 -6 10 -9 15 -6z m260 -153 c-6 -2 -9 -9 -6 -15 4 -6 -2 -8
-16 -3 -16 5 -20 4 -15 -5 5 -9 1 -10 -15 -5 -13 4 -20 3 -17 -2 3 -5 -10 -7
-30 -5 -21 3 -33 1 -30 -5 3 -5 0 -10 -7 -10 -29 0 -2 27 28 28 17 0 47 7 66
14 19 7 40 13 45 13 6 0 4 -2 -3 -5z m-353 -49 c14 -12 -19 -1 -35 12 -18 14
-18 14 6 3 14 -6 27 -13 29 -15z m381 12 c0 -2 -7 -6 -15 -10 -8 -3 -15 -1
-15 4 0 6 7 10 15 10 8 0 15 -2 15 -4z m-336 -25 c4 -5 -3 -7 -14 -4 -23 6
-26 13 -6 13 8 0 17 -4 20 -9z"/>
<path d="M645 1531 c-7 -12 12 -24 25 -16 11 7 4 25 -10 25 -5 0 -11 -4 -15
-9z"/>
<path d="M1025 1170 c-3 -6 1 -7 9 -4 18 7 21 14 7 14 -6 0 -13 -4 -16 -10z"/>
<path d="M855 1120 c-4 -6 3 -10 14 -10 25 0 27 6 6 13 -8 4 -17 2 -20 -3z"/>
<path d="M920 1080 c0 -11 4 -20 9 -20 5 0 7 9 4 20 -3 11 -7 20 -9 20 -2 0
-4 -9 -4 -20z"/>
<path d="M785 1059 c-14 -5 -5 -8 30 -9 28 -1 57 -3 66 -5 9 -1 16 3 16 9 0
14 -81 17 -112 5z"/>
<path d="M813 1033 c24 -3 35 -8 31 -15 -4 -7 -2 -8 5 -4 20 13 1 26 -37 24
l-37 -1 38 -4z"/>
<path d="M769 1017 c5 -5 21 -7 37 -5 27 3 26 4 -8 9 -22 3 -34 1 -29 -4z"/>
<path d="M828 993 c7 -3 16 -2 19 1 4 3 -2 6 -13 5 -11 0 -14 -3 -6 -6z"/>
<path d="M773 983 c9 -2 23 -2 30 0 6 3 -1 5 -18 5 -16 0 -22 -2 -12 -5z"/>
<path d="M825 970 l-40 -7 37 -2 c20 0 40 4 43 9 3 6 5 9 3 9 -2 -1 -21 -5
-43 -9z"/>
<path d="M755 160 c-3 -5 -1 -10 4 -10 6 0 11 5 11 10 0 6 -2 10 -4 10 -3 0
-8 -4 -11 -10z"/>
<path d="M540 146 c0 -2 8 -10 18 -17 15 -13 16 -12 3 4 -13 16 -21 21 -21 13z"/>
</g>
</svg>
